<?xml version="1.0" encoding="UTF-8" ?>
<!DOCTYPE svg PUBLIC "-//W3C//DTD SVG 1.1//EN" "http://www.w3.org/Graphics/SVG/1.1/DTD/svg11.dtd">
<svg width="966pt" height="966pt" viewBox="0 0 966 966" version="1.1" xmlns="http://www.w3.org/2000/svg">
<g id="#e3f1f4ff">
<path fill="#e3f1f4" opacity="1.00" d=" M 445.54 128.88 C 463.94 126.82 482.50 127.37 500.98 127.56 C 509.37 127.43 517.67 128.97 526.04 129.19 C 527.62 129.22 529.19 129.54 530.64 130.20 C 533.45 130.45 536.29 130.49 539.11 130.74 C 541.01 131.34 543.00 131.58 544.91 132.19 C 546.65 132.37 548.41 132.48 550.15 132.68 C 552.07 134.24 554.78 133.36 557.05 133.77 C 558.06 134.22 559.11 134.62 560.18 134.97 C 569.89 136.90 579.60 139.28 588.97 142.35 C 589.51 142.45 590.60 142.64 591.14 142.73 C 592.38 143.24 593.64 143.74 594.89 144.28 C 605.86 147.57 616.58 151.77 627.02 156.49 C 638.44 161.28 649.43 167.07 660.16 173.26 C 671.85 179.84 682.98 187.36 693.82 195.24 C 718.57 213.77 740.88 235.49 760.63 259.25 C 777.81 279.98 792.06 303.00 804.20 327.00 C 810.78 341.40 817.18 355.95 821.69 371.15 C 822.22 372.38 822.73 373.62 823.28 374.85 C 823.37 375.41 823.54 376.53 823.62 377.09 C 825.26 380.50 825.52 384.50 826.87 388.08 C 828.61 393.63 829.47 399.38 830.94 405.00 C 831.22 406.36 831.65 407.67 832.25 408.94 C 832.62 411.21 831.77 413.87 833.32 415.82 C 833.49 417.59 833.61 419.36 833.83 421.13 C 834.51 422.99 834.60 425.01 835.26 426.90 C 835.40 430.92 835.72 434.91 836.71 438.83 C 837.00 447.58 838.51 456.25 838.44 465.02 C 838.69 476.98 838.70 488.95 838.44 500.92 C 838.51 509.69 837.01 518.38 836.71 527.13 C 835.73 531.06 835.40 535.06 835.26 539.10 C 834.62 540.98 834.50 542.99 833.82 544.86 C 833.61 546.62 833.49 548.39 833.32 550.16 C 831.76 552.08 832.62 554.75 832.27 557.02 C 831.66 558.27 831.20 559.59 830.85 560.94 C 829.62 566.61 828.50 572.31 826.86 577.88 C 825.65 582.31 824.30 586.71 823.23 591.18 C 822.72 592.40 822.23 593.63 821.70 594.85 C 817.27 610.03 810.74 624.48 804.25 638.87 C 792.12 662.93 777.84 685.98 760.63 706.75 C 740.84 730.48 718.54 752.21 693.82 770.77 C 682.98 778.63 671.87 786.17 660.17 792.71 C 649.47 798.95 638.43 804.68 627.02 809.52 C 625.73 810.12 624.44 810.68 623.16 811.28 C 622.67 811.53 621.68 812.03 621.19 812.28 C 612.40 815.34 603.91 819.36 594.87 821.69 C 593.63 822.21 592.38 822.73 591.14 823.23 C 590.05 823.40 588.95 823.62 588.02 824.23 C 578.74 826.48 569.61 829.40 560.18 831.03 C 559.10 831.36 558.06 831.76 557.05 832.23 C 554.78 832.63 552.07 831.76 550.16 833.32 C 548.09 833.52 545.99 833.51 544.00 834.12 C 542.35 834.43 540.69 834.72 539.10 835.26 C 535.21 835.54 531.28 835.46 527.52 836.66 C 518.33 837.04 509.21 838.56 500.00 838.46 C 481.66 838.65 463.25 839.13 444.99 837.08 C 438.87 837.11 433.03 835.15 426.90 835.25 C 424.99 834.66 422.99 834.41 421.10 833.79 C 419.35 833.61 417.59 833.49 415.85 833.30 C 413.92 831.76 411.21 832.63 408.95 832.23 C 407.93 831.76 406.89 831.35 405.83 831.01 C 404.20 830.69 402.57 830.38 400.96 830.05 C 396.68 828.89 392.23 828.36 388.03 826.87 C 384.44 825.55 380.52 825.19 377.05 823.65 C 376.50 823.55 375.41 823.36 374.86 823.26 C 368.06 820.58 360.98 818.65 354.22 815.87 C 351.07 814.60 347.98 813.17 344.72 812.23 C 339.87 809.76 334.81 807.74 329.86 805.49 C 321.79 801.34 313.58 797.43 305.83 792.71 C 294.13 786.17 283.02 778.62 272.17 770.76 C 247.25 752.08 224.79 730.20 204.94 706.22 C 187.98 685.59 173.81 662.81 161.80 639.00 C 155.21 624.60 148.81 610.05 144.32 594.85 C 143.78 593.57 143.27 592.32 142.73 591.06 C 142.64 590.52 142.48 589.44 142.39 588.89 C 140.95 585.38 140.34 581.51 139.13 577.88 C 137.79 573.67 137.09 569.30 135.96 565.04 C 135.59 563.42 135.28 561.79 134.96 560.17 C 134.60 559.11 134.20 558.07 133.75 557.05 C 133.37 554.77 134.22 552.10 132.68 550.16 C 132.50 548.41 132.37 546.66 132.18 544.92 C 131.59 543.00 131.33 541.01 130.74 539.11 C 130.83 532.98 128.87 527.14 128.92 521.02 C 126.88 502.75 127.34 484.33 127.54 465.98 C 127.41 456.91 128.95 447.94 129.28 438.89 C 130.27 434.95 130.57 430.94 130.74 426.89 C 131.36 425.01 131.50 423.00 132.18 421.14 C 132.37 419.36 132.50 417.59 132.68 415.82 C 134.21 413.87 133.38 411.21 133.75 408.94 C 134.33 407.68 134.76 406.38 135.03 405.02 C 136.55 399.41 137.37 393.63 139.13 388.08 C 140.44 384.50 140.78 380.54 142.40 377.12 C 142.48 376.55 142.65 375.43 142.73 374.86 C 143.27 373.63 143.78 372.38 144.32 371.15 C 146.72 362.09 150.70 353.55 153.76 344.71 C 156.61 338.89 159.08 332.88 161.80 327.00 C 168.87 313.29 176.33 299.77 184.86 286.90 C 208.54 251.73 238.38 220.78 272.18 195.23 C 290.29 181.86 309.69 170.28 329.96 160.49 C 334.24 158.54 338.58 156.73 342.82 154.69 C 351.36 151.15 360.03 147.95 368.71 144.80 C 369.32 144.69 370.52 144.47 371.12 144.36 C 372.31 143.72 373.58 143.26 374.86 142.80 C 384.84 139.94 394.85 137.18 405.01 135.05 C 406.37 134.72 407.76 134.40 409.01 133.73 C 411.24 133.35 413.92 134.25 415.81 132.68 C 417.56 132.50 419.32 132.37 421.09 132.19 C 422.99 131.59 424.98 131.33 426.89 130.74 C 429.71 130.49 432.54 130.45 435.36 130.20 C 438.55 128.71 442.15 129.33 445.54 128.88 M 443.52 139.33 C 439.72 140.41 435.80 140.53 431.88 140.73 C 430.00 141.36 427.99 141.50 426.13 142.18 C 424.35 142.37 422.58 142.49 420.81 142.68 C 418.89 144.23 416.20 143.37 413.94 143.75 C 412.43 144.48 410.79 144.87 409.17 145.27 C 400.04 147.22 390.88 149.43 382.05 152.36 C 381.50 152.45 380.40 152.63 379.85 152.72 C 378.60 153.24 377.36 153.74 376.14 154.30 C 366.43 157.00 357.15 161.01 347.80 164.69 C 346.54 165.33 345.26 165.91 343.99 166.51 C 340.88 167.61 338.02 169.28 334.95 170.49 C 314.69 180.28 295.29 191.86 277.18 205.23 C 245.06 229.16 217.16 258.63 194.84 291.89 C 177.79 318.07 163.54 346.25 154.31 376.15 C 153.78 377.38 153.26 378.62 152.72 379.86 C 152.64 380.42 152.48 381.55 152.40 382.11 C 150.78 385.53 150.44 389.49 149.13 393.07 C 147.37 398.62 146.55 404.38 145.04 409.99 C 144.76 411.35 144.33 412.67 143.75 413.95 C 143.38 416.22 144.21 418.87 142.68 420.82 C 142.49 422.57 142.37 424.32 142.17 426.09 C 141.57 427.98 141.34 429.98 140.73 431.89 C 140.82 437.96 138.89 443.75 138.92 449.81 C 137.22 464.79 137.24 479.89 137.54 494.94 C 137.48 504.35 138.91 513.67 139.42 523.05 C 140.54 526.63 140.43 530.39 140.75 534.10 C 141.30 536.01 141.61 538.00 142.18 539.92 C 142.36 541.66 142.51 543.41 142.70 545.16 C 144.28 547.07 143.32 549.78 143.76 552.04 C 144.24 553.05 144.64 554.10 144.97 555.18 C 145.30 556.79 145.61 558.40 145.97 560.02 C 147.06 564.30 147.80 568.67 149.13 572.89 C 150.45 576.48 150.74 580.49 152.38 583.92 C 152.46 584.47 152.63 585.59 152.71 586.15 C 153.25 587.37 153.77 588.62 154.31 589.85 C 165.43 625.42 183.15 658.81 205.24 688.78 C 225.57 716.10 249.89 740.40 277.18 760.77 C 294.44 773.59 313.00 784.54 332.13 794.28 C 336.17 795.82 339.95 797.97 344.00 799.50 C 345.26 800.08 346.54 800.66 347.79 801.31 C 357.15 804.98 366.43 808.99 376.13 811.71 C 377.36 812.24 378.60 812.74 379.85 813.27 C 380.40 813.37 381.50 813.55 382.05 813.65 C 389.84 816.20 397.91 818.30 405.96 820.06 C 407.58 820.39 409.22 820.70 410.85 821.03 C 411.91 821.36 412.94 821.76 413.95 822.23 C 416.17 822.71 418.97 821.65 420.81 823.31 C 422.57 823.49 424.33 823.62 426.10 823.79 C 428.99 824.65 431.97 825.39 435.02 825.49 C 439.81 825.34 444.33 827.31 449.16 827.02 C 466.68 829.01 484.34 828.74 501.94 828.31 C 508.81 827.77 515.66 827.00 522.55 826.66 C 526.30 825.48 530.21 825.54 534.10 825.25 C 535.99 824.64 538.00 824.49 539.88 823.82 C 541.63 823.62 543.39 823.49 545.16 823.32 C 547.08 821.76 549.78 822.63 552.05 822.24 C 553.07 821.77 554.11 821.37 555.18 821.04 C 564.90 819.12 574.61 816.74 583.97 813.65 C 584.52 813.55 585.60 813.37 586.15 813.27 C 587.39 812.75 588.65 812.26 589.89 811.72 C 599.58 808.99 608.86 805.00 618.23 801.33 C 619.47 800.69 620.75 800.10 622.02 799.51 C 633.45 794.72 644.45 788.92 655.17 782.73 C 666.86 776.16 677.98 768.64 688.83 760.77 C 725.12 733.57 756.37 699.51 779.64 660.54 C 792.87 638.26 804.05 614.63 811.70 589.85 C 812.23 588.64 812.72 587.40 813.22 586.18 C 814.42 581.74 815.61 577.30 816.87 572.89 C 818.20 568.67 818.93 564.30 820.03 560.03 C 820.38 558.40 820.70 556.79 821.03 555.18 C 821.35 554.10 821.75 553.05 822.24 552.04 C 822.69 549.79 821.68 547.04 823.30 545.16 C 823.48 543.39 823.62 541.62 823.83 539.87 C 824.49 537.99 824.65 535.98 825.25 534.10 C 825.65 531.08 825.26 527.97 826.13 525.03 C 827.19 521.16 826.80 517.10 827.34 513.15 C 828.92 498.82 828.66 484.38 828.45 469.99 C 828.52 461.25 827.00 452.61 826.72 443.90 C 825.73 439.95 825.40 435.94 825.27 431.89 C 824.63 430.00 824.50 428.00 823.81 426.14 C 823.61 424.36 823.50 422.59 823.32 420.82 C 821.78 418.84 822.62 416.16 822.26 413.86 C 821.64 412.63 821.20 411.33 820.96 409.98 C 819.46 404.37 818.61 398.62 816.87 393.07 C 815.53 389.49 815.25 385.50 813.63 382.09 C 813.54 381.53 813.37 380.41 813.29 379.85 C 812.74 378.61 812.22 377.37 811.69 376.15 C 790.15 308.12 745.98 247.79 688.83 205.24 C 668.03 190.00 645.71 176.70 622.02 166.49 C 620.75 165.89 619.47 165.31 618.23 164.68 C 608.87 161.00 599.59 157.02 589.89 154.27 C 588.65 153.73 587.39 153.23 586.15 152.73 C 585.61 152.63 584.53 152.44 583.98 152.35 C 574.88 149.29 565.40 147.17 556.01 145.03 C 554.63 144.78 553.31 144.35 552.07 143.74 C 549.80 143.36 547.11 144.25 545.21 142.67 C 543.42 142.49 541.63 142.37 539.87 142.18 C 538.00 141.49 535.99 141.36 534.12 140.73 C 531.29 140.49 528.46 140.45 525.64 140.20 C 524.19 139.54 522.63 139.21 521.05 139.19 C 514.67 139.01 508.33 138.11 501.97 137.69 C 489.01 137.31 476.04 137.28 463.08 137.74 C 456.56 138.34 450.05 138.98 443.52 139.33 Z" />
<path fill="#e3f1f4" opacity="1.00" d=" M 453.66 172.82 C 469.66 171.04 485.81 171.25 501.87 171.86 C 508.85 172.80 515.98 172.55 522.87 174.11 C 529.69 174.29 536.28 176.24 543.00 177.15 C 599.42 188.04 652.56 215.24 694.62 254.37 C 737.32 293.77 768.78 345.32 783.82 401.48 C 792.91 434.75 796.12 469.47 793.96 503.90 C 793.10 510.22 793.41 516.67 791.88 522.89 C 791.84 527.72 790.64 532.40 789.89 537.14 C 779.71 596.16 751.74 652.03 710.64 695.61 C 671.55 737.71 620.54 768.69 565.06 783.68 C 558.52 785.76 551.71 786.78 545.10 788.58 C 538.36 789.22 531.84 791.34 525.08 791.71 C 504.60 794.75 483.74 795.09 463.06 794.05 C 456.44 793.12 449.68 793.43 443.16 791.90 C 436.32 791.71 429.71 789.75 422.96 788.84 C 366.59 777.92 313.45 750.78 271.41 711.66 C 228.71 672.23 197.20 620.69 182.19 564.51 C 171.68 525.90 168.86 485.25 173.63 445.52 C 178.95 400.63 194.33 356.86 218.35 318.49 C 251.32 265.49 300.48 222.69 357.68 197.66 C 388.04 184.23 420.65 175.75 453.66 172.82 M 456.02 202.98 C 422.77 206.21 390.06 215.33 360.02 230.02 C 316.84 251.11 279.07 283.31 251.88 322.98 C 250.54 324.97 248.55 326.72 248.41 329.30 C 257.45 329.60 266.61 330.92 275.62 329.55 C 289.07 328.84 302.57 329.13 315.99 327.78 C 322.27 327.10 328.66 327.71 334.89 326.50 C 339.07 326.05 343.70 325.40 347.53 327.55 C 354.20 330.88 354.82 341.60 348.72 345.80 C 345.42 348.37 341.02 347.77 337.18 348.82 C 328.26 349.15 319.40 350.38 310.48 350.76 C 313.21 360.61 316.90 370.17 320.01 379.90 C 350.31 470.00 380.58 560.11 410.89 650.21 C 411.62 651.85 411.80 653.63 412.02 655.41 C 412.60 655.11 413.76 654.50 414.34 654.20 C 434.42 593.43 454.80 532.75 474.98 472.02 C 475.22 469.74 473.88 467.70 473.20 465.62 C 459.16 427.34 445.37 388.96 431.16 350.74 C 420.28 349.81 409.35 349.32 398.59 347.45 C 390.61 345.07 389.45 333.53 395.55 328.57 C 399.60 325.22 405.18 325.96 410.01 326.46 C 416.53 327.76 423.22 327.08 429.80 327.81 C 442.96 329.15 456.20 328.85 469.39 329.55 C 474.36 330.38 479.61 330.32 484.58 329.59 C 494.60 328.93 504.65 329.23 514.66 328.56 C 522.10 328.29 529.49 327.27 536.95 327.29 C 543.88 327.35 551.21 324.35 557.88 327.33 C 564.78 330.47 565.61 341.30 559.54 345.67 C 556.32 348.30 551.93 347.81 548.11 348.80 C 539.21 349.12 530.39 350.40 521.49 350.70 C 522.41 357.30 525.51 363.37 527.26 369.78 C 557.87 460.49 588.26 551.28 618.84 642.01 C 619.85 645.63 621.51 649.05 622.12 652.78 C 624.96 652.55 624.75 649.06 625.57 647.04 C 636.06 612.56 645.95 577.89 656.85 543.55 C 663.02 522.99 669.48 502.37 672.44 481.05 C 674.52 458.11 671.02 434.55 661.13 413.66 C 651.61 389.54 633.57 369.69 625.54 344.90 C 622.65 335.31 621.35 325.04 623.63 315.17 C 626.44 301.27 635.22 288.38 647.89 281.72 C 655.35 277.50 664.08 276.35 672.51 276.25 C 672.28 275.77 671.82 274.81 671.59 274.33 C 665.95 269.64 660.30 264.98 654.71 260.23 C 649.77 256.47 644.56 253.09 639.50 249.50 C 630.54 242.84 620.40 238.04 610.81 232.39 C 600.27 227.65 589.97 222.31 578.98 218.69 C 570.93 216.08 563.06 212.87 554.77 211.10 C 547.56 209.59 540.51 207.44 533.27 206.10 C 525.84 205.49 518.54 203.95 511.15 203.01 C 506.43 202.87 501.67 202.97 497.01 202.07 C 486.63 201.41 476.20 201.66 465.81 201.96 C 462.56 202.51 459.32 203.11 456.02 202.98 M 730.19 362.04 C 730.79 378.37 730.73 394.91 727.76 411.02 C 726.72 422.91 722.99 434.29 720.30 445.87 C 717.57 455.58 713.52 464.86 710.62 474.52 L 709.98 475.36 C 703.58 495.03 696.48 514.46 689.87 534.06 C 667.69 597.86 645.82 661.78 623.52 725.54 C 624.14 725.45 625.38 725.28 626.01 725.20 C 648.47 711.66 669.30 695.28 687.26 676.14 C 726.09 635.31 752.29 582.53 760.84 526.83 C 762.75 517.99 762.69 508.89 764.11 500.00 C 764.35 488.61 764.48 477.21 764.08 465.82 C 763.57 462.57 762.91 459.33 763.02 456.03 C 759.56 418.28 747.91 381.45 729.92 348.11 C 727.84 352.54 730.25 357.40 730.19 362.04 M 222.38 377.29 C 212.18 402.06 205.86 428.37 202.97 454.96 C 203.09 458.94 202.62 462.89 201.92 466.80 C 201.52 478.17 201.57 489.57 202.06 500.94 C 203.03 505.21 202.78 509.61 203.43 513.92 C 207.21 548.55 217.57 582.48 233.78 613.34 C 259.35 662.26 299.64 703.34 348.11 729.76 C 352.35 731.74 356.19 734.61 360.71 735.92 C 360.62 733.84 359.79 731.93 359.00 730.04 C 342.35 684.16 325.45 638.35 308.85 592.44 C 290.94 543.80 273.35 495.05 255.45 446.40 C 246.51 421.43 237.19 396.60 228.26 371.62 C 227.77 370.33 226.81 369.33 225.96 368.29 C 224.80 371.30 223.76 374.36 222.38 377.29 M 486.27 510.54 C 459.27 589.20 432.16 667.82 405.12 746.46 C 404.45 748.62 403.22 750.68 403.53 753.03 C 412.71 754.96 421.67 757.99 430.99 759.31 C 442.53 761.86 454.33 762.62 466.01 764.09 C 476.68 764.34 487.37 764.50 498.04 764.02 C 504.33 762.93 510.78 763.38 517.04 762.04 C 529.66 760.86 542.00 757.91 554.34 755.18 C 561.68 753.17 568.82 750.20 576.31 748.89 C 576.28 748.38 576.23 747.36 576.21 746.85 C 574.32 742.93 572.95 738.80 571.40 734.75 C 564.72 715.92 557.51 697.27 551.03 678.37 L 550.39 677.52 C 536.52 638.39 521.89 599.51 507.85 560.44 C 501.07 542.78 495.26 524.72 488.03 507.25 C 487.22 508.23 486.64 509.33 486.27 510.54 Z" />
</g>
</svg>
